<svg xmlns="http://www.w3.org/2000/svg" version="1.1" xmlns:xlink="http://www.w3.org/1999/xlink" xmlns:svgjs="http://svgjs.com/svgjs" width="500" height="128" preserveAspectRatio="none" viewBox="0 0 500 128"><g mask="url(&quot;#SvgjsMask1129&quot;)" fill="none"><rect width="500" height="128" x="0" y="0" fill="rgba(8, 145, 178, 1)"></rect><use xlink:href="#SvgjsPath1130" x="30" y="30" stroke="rgba(255, 255, 255, 1)"></use><use xlink:href="#SvgjsPath1130" x="30" y="90" stroke="rgba(255, 255, 255, 1)"></use><use xlink:href="#SvgjsPath1131" x="30" y="150" stroke="rgba(255, 255, 255, 1)"></use><use xlink:href="#SvgjsPath1130" x="90" y="30" stroke="rgba(255, 255, 255, 1)"></use><use xlink:href="#SvgjsPath1132" x="90" y="90" stroke="rgba(255, 255, 255, 1)"></use><use xlink:href="#SvgjsPath1130" x="90" y="150" stroke="rgba(255, 255, 255, 1)"></use><use xlink:href="#SvgjsPath1133" x="150" y="30" stroke="rgba(255, 255, 255, 1)"></use><use xlink:href="#SvgjsPath1130" x="150" y="90" stroke="rgba(255, 255, 255, 1)"></use><use xlink:href="#SvgjsPath1133" x="150" y="150" stroke="rgba(255, 255, 255, 1)"></use><use xlink:href="#SvgjsPath1133" x="210" y="30" stroke="rgba(255, 255, 255, 1)"></use><use xlink:href="#SvgjsPath1133" x="210" y="90" stroke="rgba(255, 255, 255, 1)"></use><use xlink:href="#SvgjsPath1130" x="210" y="150" stroke="rgba(255, 255, 255, 1)"></use><use xlink:href="#SvgjsPath1131" x="270" y="30" stroke="rgba(255, 255, 255, 1)"></use><use xlink:href="#SvgjsPath1134" x="270" y="90" stroke="rgba(255, 255, 255, 1)" stroke-width="3"></use><use xlink:href="#SvgjsPath1130" x="270" y="150" stroke="rgba(255, 255, 255, 1)"></use><use xlink:href="#SvgjsPath1133" x="330" y="30" stroke="rgba(255, 255, 255, 1)"></use><use xlink:href="#SvgjsPath1130" x="330" y="90" stroke="rgba(255, 255, 255, 1)"></use><use xlink:href="#SvgjsPath1133" x="330" y="150" stroke="rgba(255, 255, 255, 1)"></use><use xlink:href="#SvgjsPath1131" x="390" y="30" stroke="rgba(255, 255, 255, 1)"></use><use xlink:href="#SvgjsPath1133" x="390" y="90" stroke="rgba(255, 255, 255, 1)"></use><use xlink:href="#SvgjsPath1135" x="390" y="150" stroke="rgba(255, 255, 255, 1)"></use><use xlink:href="#SvgjsPath1132" x="450" y="30" stroke="rgba(255, 255, 255, 1)"></use><use xlink:href="#SvgjsPath1130" x="450" y="90" stroke="rgba(255, 255, 255, 1)"></use><use xlink:href="#SvgjsPath1130" x="450" y="150" stroke="rgba(255, 255, 255, 1)"></use><use xlink:href="#SvgjsPath1135" x="510" y="30" stroke="rgba(255, 255, 255, 1)"></use><use xlink:href="#SvgjsPath1130" x="510" y="90" stroke="rgba(255, 255, 255, 1)"></use><use xlink:href="#SvgjsPath1130" x="510" y="150" stroke="rgba(255, 255, 255, 1)"></use></g><defs><mask id="SvgjsMask1129"><rect width="500" height="128" fill="#ffffff"></rect></mask><path d="M-1 0 a1 1 0 1 0 2 0 a1 1 0 1 0 -2 0z" id="SvgjsPath1131"></path><path d="M-3 0 a3 3 0 1 0 6 0 a3 3 0 1 0 -6 0z" id="SvgjsPath1135"></path><path d="M-5 0 a5 5 0 1 0 10 0 a5 5 0 1 0 -10 0z" id="SvgjsPath1132"></path><path d="M2 -2 L-2 2z" id="SvgjsPath1133"></path><path d="M6 -6 L-6 6z" id="SvgjsPath1130"></path><path d="M30 -30 L-30 30z" id="SvgjsPath1134"></path></defs></svg>